<svg width="256" height="256" viewBox="0 0 256 256" fill="none" xmlns="http://www.w3.org/2000/svg">
<path d="M207.455 94.4392C205.718 98.0559 202.143 100.304 198.131 100.304H180.719C179.891 82.7432 170.09 66.471 154.977 57.4321C167.712 59.811 179.459 63.9387 189.033 69.4063C196.275 73.5453 202.058 78.2749 206.212 83.4756C208.726 86.6154 209.203 90.8169 207.46 94.4449M180.225 59.5839C193.432 62.031 205.389 65.3865 215.809 69.5596C227.04 74.062 235.825 79.2741 241.914 85.0427C242.164 85.2811 242.408 85.5196 242.646 85.7524C245.121 88.2108 245.836 91.7537 244.502 94.9956C243.151 98.2717 240.121 100.31 236.585 100.31H218.47C217.42 86.9106 207.858 74.397 191.519 65.0629C188.012 63.0587 184.221 61.2191 180.231 59.5839M11.4922 160.993C12.8428 157.717 15.8734 155.679 19.4033 155.679H37.524C38.5739 169.084 48.1366 181.592 64.4753 190.926C67.9825 192.93 71.7735 194.77 75.7631 196.41C62.5571 193.958 50.5996 190.608 40.18 186.429C28.9489 181.927 20.1638 176.715 14.0744 170.946C13.8246 170.708 13.5806 170.469 13.3423 170.236C10.8679 167.778 10.1528 164.235 11.4865 160.993M48.5225 161.544C50.2591 157.927 53.8344 155.679 57.8467 155.679H75.2581C76.0866 173.24 85.8876 189.512 101.001 198.551C88.2598 196.172 76.5123 192.044 66.9497 186.577C59.7025 182.438 53.9252 177.702 49.771 172.507C47.2626 169.368 46.7802 165.166 48.5225 161.544ZM240.615 150.677H218.453C217.403 137.277 207.841 124.764 191.502 115.43C188 113.431 184.209 111.591 180.208 109.945C193.415 112.392 205.372 115.748 215.792 119.926C227.023 124.429 235.808 129.641 241.897 135.409C243.452 136.886 244.831 138.402 245.995 139.917C247.561 141.967 247.816 144.573 246.664 146.901C245.518 149.229 243.197 150.677 240.615 150.677ZM180.214 196.41C184.209 194.77 187.995 192.93 191.502 190.926C207.841 181.592 217.403 169.084 218.453 155.679H240.615C243.197 155.679 245.518 157.127 246.664 159.454C247.811 161.782 247.561 164.394 245.995 166.438C244.831 167.954 243.452 169.47 241.897 170.946C235.802 176.72 227.023 181.932 215.792 186.429C205.372 190.608 193.415 193.958 180.208 196.41M83.8956 159.591C85.6947 157.104 88.4811 155.679 91.5457 155.679H164.42C167.485 155.679 170.277 157.104 172.07 159.591C173.864 162.072 174.346 165.166 173.393 168.073C166.929 187.758 148.677 200.987 127.98 200.987C107.283 200.987 89.0373 187.758 82.5676 168.073C81.6085 165.166 82.0966 162.072 83.89 159.591M15.3626 105.306H37.524C38.5739 118.706 48.1366 131.219 64.4753 140.553C67.9825 142.558 71.7735 144.397 75.7631 146.038C62.5571 143.585 50.5996 140.235 40.18 136.057C28.9489 131.554 20.1638 126.342 14.0744 120.574C12.5194 119.097 11.1403 117.581 9.9769 116.066C8.41056 114.016 8.15518 111.41 9.30723 109.082C10.4536 106.754 12.7747 105.306 15.3569 105.306M75.7688 59.5783C71.7735 61.2134 67.9882 63.053 64.481 65.0572C48.1422 74.3913 38.5796 86.8993 37.5297 100.304H15.3626C12.7804 100.304 10.4593 98.8565 9.31291 96.5286C8.16653 94.2008 8.41624 91.589 9.98258 89.5451C11.146 88.0291 12.525 86.5132 14.08 85.037C20.1695 79.2685 28.9489 74.0563 40.1857 69.5539C50.6052 65.3752 62.5628 62.0253 75.7688 59.5783ZM172.087 96.398C170.288 98.8848 167.502 100.31 164.437 100.31H91.5571C88.4925 100.31 85.706 98.8848 83.907 96.398C82.1136 93.9169 81.6256 90.8225 82.5847 87.9156C89.0487 68.231 107.3 55.002 127.997 55.002C148.694 55.002 166.94 68.231 173.41 87.9156C174.363 90.8225 173.886 93.9169 172.087 96.398ZM180.725 155.684H202.551C205.446 155.684 208.045 157.183 209.492 159.693C210.939 162.202 210.945 165.2 209.498 167.71C205.412 174.807 198.522 181.16 189.028 186.582C179.459 192.05 167.717 196.172 154.977 198.557C170.09 189.518 179.896 173.245 180.719 155.684M75.2694 100.304H53.4428C50.5485 100.304 47.9493 98.8054 46.5021 96.2958C45.055 93.7863 45.0493 90.7885 46.4964 88.2789C50.5825 81.1818 57.4665 74.8285 66.9667 69.4063C76.535 63.9387 88.2768 59.8167 101.018 57.4378C85.9046 66.4766 76.1037 82.7489 75.2751 100.31M46.5021 109.32C47.955 106.811 50.5485 105.312 53.4428 105.312H75.2694C76.098 122.873 85.899 139.145 101.012 148.184C88.2768 145.805 76.5293 141.678 66.961 136.21C57.4608 130.788 50.5769 124.434 46.4908 117.337C45.0436 114.828 45.0493 111.83 46.4964 109.32M93.4639 128C93.4639 115.492 108.957 105.312 127.997 105.312C147.037 105.312 162.525 115.486 162.525 128C162.525 140.514 147.037 150.682 127.997 150.682C108.957 150.682 93.4639 140.508 93.4639 128ZM209.492 146.674C208.045 149.183 205.446 150.682 202.551 150.682H180.725C179.896 133.121 170.095 116.849 154.982 107.81C167.717 110.189 179.465 114.317 189.039 119.784C198.533 125.207 205.423 131.56 209.509 138.657C210.956 141.167 210.951 144.164 209.504 146.674M256 102.814C256 88.2846 242.385 74.8228 217.67 64.9153C193.681 55.2973 161.838 50 128.003 50C94.1676 50 62.3244 55.2973 38.3356 64.9153C13.609 74.8171 0 88.2733 0 102.808C0 117.343 13.6147 130.799 38.3299 140.707C48.6473 144.84 60.4289 148.196 73.3909 150.682H0V153.186C0 167.715 13.6147 181.171 38.3299 191.085C62.3187 200.703 94.1676 206 127.997 206C161.827 206 193.676 200.703 217.664 191.085C242.38 181.177 255.994 167.721 255.994 153.186C255.994 138.651 242.38 125.195 217.664 115.288C207.347 111.154 195.565 107.799 182.603 105.312H255.989V102.814H256Z" fill="#E1E3D5"/>
</svg>
