<svg width="983" height="599" viewBox="0 0 983 599" fill="none" xmlns="http://www.w3.org/2000/svg">
<path d="M796.594 170.635C789.926 184.522 776.197 193.155 760.79 193.155H693.934C690.752 125.725 653.118 63.2442 595.087 28.5373C643.987 37.6719 689.096 53.5211 725.858 74.5153C753.665 90.4081 775.87 108.568 791.822 128.538C801.475 140.594 803.306 156.726 796.616 170.657M692.038 36.7998C742.747 46.196 788.662 59.0803 828.671 75.1039C871.797 92.392 905.531 112.405 928.913 134.555C929.872 135.47 930.809 136.386 931.724 137.28C941.225 146.72 943.971 160.323 938.85 172.772C933.664 185.351 922.027 193.177 908.451 193.177H838.892C834.86 141.727 798.141 93.6782 735.403 57.8376C721.936 50.1419 707.379 43.0785 692.06 36.7998M44.1281 426.185C49.3145 413.606 60.9513 405.779 74.5057 405.779H144.086C148.118 457.251 184.837 505.278 247.575 541.119C261.042 548.814 275.599 555.878 290.919 562.178C240.209 552.76 194.294 539.898 154.285 523.853C111.159 506.564 77.4258 486.551 54.0433 464.402C53.0845 463.486 52.1474 462.57 51.2322 461.676C41.731 452.237 38.9853 438.633 44.1063 426.185M186.319 428.299C192.987 414.412 206.716 405.779 222.122 405.779H288.979C292.161 473.209 329.795 535.69 387.826 570.397C338.904 561.263 293.795 545.414 257.076 524.419C229.248 508.526 207.064 490.345 191.113 470.397C181.481 458.341 179.629 442.208 186.319 428.299ZM923.923 386.573H838.826C834.795 335.123 798.076 287.074 735.338 251.233C721.892 243.559 707.335 236.496 691.972 230.173C742.681 239.569 788.597 252.454 828.606 268.499C871.732 285.787 905.465 305.8 928.848 327.95C934.819 333.618 940.114 339.439 944.581 345.26C950.596 353.13 951.576 363.137 947.153 372.075C942.751 381.013 933.838 386.573 923.923 386.573ZM691.994 562.178C707.335 555.878 721.87 548.814 735.338 541.119C798.076 505.278 834.795 457.251 838.826 405.779H923.923C933.838 405.779 942.751 411.338 947.153 420.277C951.555 429.215 950.596 439.243 944.581 447.092C940.114 452.913 934.819 458.733 928.848 464.402C905.443 486.573 871.732 506.586 828.606 523.853C788.597 539.898 742.681 552.76 691.972 562.178M322.146 420.8C329.054 411.251 339.754 405.779 351.521 405.779H631.348C643.115 405.779 653.837 411.251 660.723 420.8C667.609 430.327 669.462 442.208 665.801 453.37C640.98 528.954 570.898 579.75 491.424 579.75C411.95 579.75 341.889 528.954 317.047 453.37C313.364 442.208 315.238 430.327 322.124 420.8M58.99 212.362H144.086C148.118 263.812 184.837 311.861 247.575 347.702C261.042 355.397 275.599 362.461 290.919 368.761C240.209 359.343 194.294 346.481 154.285 330.435C111.159 313.147 77.4258 293.134 54.0433 270.984C48.0724 265.316 42.777 259.495 38.3097 253.675C32.2952 245.805 31.3146 235.798 35.7383 226.86C40.1402 217.921 49.053 212.362 58.9682 212.362M290.94 36.778C275.599 43.0567 261.064 50.1201 247.597 57.8158C184.859 93.6564 148.14 141.684 144.108 193.155H58.99C49.0748 193.155 40.162 187.596 35.7601 178.658C31.3582 169.72 32.317 159.691 38.3315 151.843C42.7988 146.022 48.0942 140.201 54.0651 134.533C77.4476 112.383 111.159 92.3702 154.307 75.0821C194.316 59.0367 240.231 46.1742 290.94 36.778ZM660.788 178.157C653.881 187.705 643.181 193.177 631.413 193.177H351.565C339.797 193.177 329.098 187.705 322.19 178.157C315.304 168.63 313.429 156.748 317.112 145.586C341.933 70.0025 412.015 19.2065 491.489 19.2065C570.963 19.2065 641.023 70.0025 665.866 145.586C669.527 156.748 667.696 168.63 660.788 178.157ZM693.955 405.801H777.766C788.88 405.801 798.86 411.556 804.417 421.192C809.974 430.828 809.996 442.339 804.439 451.975C788.749 479.226 762.294 503.621 725.837 524.441C689.096 545.435 644.009 561.263 595.087 570.419C653.118 535.712 690.774 473.231 693.934 405.801M289.023 193.155H205.212C194.098 193.155 184.118 187.4 178.561 177.764C173.004 168.128 172.982 156.617 178.539 146.981C194.229 119.73 220.662 95.3351 257.142 74.5153C293.882 53.5211 338.969 37.6937 387.892 28.5591C329.86 63.2661 292.226 125.747 289.045 193.177M178.561 227.775C184.14 218.139 194.098 212.384 205.212 212.384H289.023C292.204 279.814 329.839 342.295 387.87 377.002C338.969 367.867 293.861 352.018 257.12 331.024C220.641 310.204 194.207 285.809 178.517 258.558C172.96 248.922 172.982 237.411 178.539 227.775M358.887 299.5C358.887 251.473 418.378 212.384 491.489 212.384C564.6 212.384 624.07 251.451 624.07 299.5C624.07 347.549 564.6 386.594 491.489 386.594C418.378 386.594 358.887 347.527 358.887 299.5ZM804.417 371.203C798.86 380.839 788.88 386.594 777.766 386.594H693.955C690.774 319.164 653.14 256.683 595.108 221.976C644.009 231.111 689.118 246.96 725.88 267.954C762.338 288.774 788.793 313.169 804.483 340.42C810.04 350.056 810.018 361.567 804.461 371.203M983 202.791C983 147.003 930.722 95.3133 835.819 57.2708C743.706 20.3402 621.433 0 491.511 0C361.589 0 239.316 20.3402 147.203 57.2708C52.2564 95.2915 0 146.96 0 202.77C0 258.58 52.2782 310.248 147.181 348.29C186.798 364.161 232.038 377.046 281.81 386.594H0V396.209C0 451.997 52.2782 503.665 147.181 541.729C239.294 578.66 361.589 599 491.489 599C621.389 599 743.684 578.66 835.797 541.729C930.7 503.687 982.978 452.019 982.978 396.209C982.978 340.398 930.7 288.73 835.797 250.688C796.18 234.817 750.941 221.933 701.168 212.384H982.956V202.791H983Z" fill="#161616"/>
</svg>
