<svg width="1070" height="652" viewBox="0 0 1070 652" fill="none" xmlns="http://www.w3.org/2000/svg">
<path d="M867.096 185.733C859.838 200.849 844.894 210.246 828.124 210.246H755.35C751.887 136.85 710.922 68.8402 647.755 31.0623C700.983 41.0051 750.084 58.2567 790.1 81.1085C820.367 98.4075 844.538 118.174 861.902 139.911C872.41 153.033 874.402 170.594 867.12 185.757M753.286 40.0559C808.483 50.2834 858.462 64.3078 902.013 81.7492C948.955 100.567 985.674 122.351 1011.13 146.46C1012.17 147.457 1013.19 148.454 1014.19 149.427C1024.53 159.702 1027.52 174.509 1021.94 188.059C1016.3 201.751 1003.63 210.27 988.853 210.27H913.137C908.749 154.267 868.78 101.967 800.49 62.9552C785.83 54.5785 769.985 46.8901 753.31 40.0559M48.0336 463.894C53.6791 450.202 66.3457 441.683 81.0998 441.683H156.839C161.227 497.709 201.196 549.986 269.487 588.997C284.146 597.374 299.991 605.062 316.666 611.92C261.469 601.669 211.49 587.669 167.94 570.203C120.997 551.386 84.2783 529.602 58.8264 505.492C57.7827 504.496 56.7627 503.499 55.7665 502.526C45.4244 492.251 42.4357 477.444 48.0099 463.894M202.809 466.196C210.067 451.08 225.011 441.683 241.781 441.683H314.555C318.018 515.079 358.983 583.089 422.151 620.866C368.898 610.924 319.797 593.672 279.829 570.82C249.538 553.521 225.39 533.731 208.027 512.018C197.543 498.895 195.527 481.335 202.809 466.196ZM1005.69 420.777H913.066C908.678 364.774 868.709 312.474 800.418 273.462C785.783 265.109 769.938 257.421 753.215 250.539C808.412 260.767 858.391 274.791 901.941 292.256C948.884 311.074 985.603 332.858 1011.05 356.967C1017.55 363.137 1023.32 369.473 1028.18 375.809C1034.73 384.375 1035.8 395.267 1030.98 404.997C1026.19 414.726 1016.49 420.777 1005.69 420.777ZM753.239 611.92C769.938 605.062 785.759 597.374 800.418 588.997C868.709 549.986 908.678 497.709 913.066 441.683H1005.69C1016.49 441.683 1026.19 447.734 1030.98 457.463C1035.77 467.192 1034.73 478.108 1028.18 486.651C1023.32 492.987 1017.55 499.322 1011.05 505.492C985.579 529.625 948.884 551.409 901.941 570.203C858.391 587.669 808.412 601.669 753.215 611.92M350.658 458.033C358.177 447.639 369.824 441.683 382.632 441.683H687.225C700.034 441.683 711.705 447.639 719.2 458.033C726.696 468.403 728.712 481.335 724.727 493.485C697.71 575.756 621.425 631.047 534.917 631.047C448.409 631.047 372.148 575.756 345.107 493.485C341.098 481.335 343.138 468.403 350.634 458.033M64.2109 231.152H156.839C161.227 287.154 201.196 339.455 269.487 378.467C284.146 386.843 299.991 394.532 316.666 401.39C261.469 391.138 211.49 377.138 167.94 359.673C120.997 340.855 84.2783 319.071 58.8264 294.961C52.327 288.792 46.563 282.456 41.7003 276.12C35.1535 267.554 34.0861 256.662 38.9013 246.932C43.6928 237.203 53.3944 231.152 64.1872 231.152M316.69 40.0322C299.991 46.8664 284.169 54.5548 269.51 62.9314C201.219 101.943 161.251 154.22 156.862 210.246H64.2109C53.4182 210.246 43.7165 204.195 38.925 194.466C34.1335 184.737 35.1772 173.821 41.724 165.278C46.5867 158.942 52.3508 152.606 58.8501 146.437C84.302 122.327 120.997 100.543 167.964 81.7254C211.514 64.2603 261.493 50.2597 316.69 40.0322ZM719.271 193.92C711.752 204.314 700.105 210.27 687.296 210.27H382.68C369.871 210.27 358.224 204.314 350.705 193.92C343.209 183.55 341.169 170.617 345.178 158.468C372.196 76.1964 448.48 20.906 534.988 20.906C621.496 20.906 697.757 76.1964 724.798 158.468C728.783 170.617 726.791 183.55 719.271 193.92ZM755.374 441.707H846.602C858.699 441.707 869.563 447.971 875.612 458.46C881.661 468.948 881.684 481.478 875.636 491.966C858.557 521.628 829.761 548.182 790.076 570.844C750.084 593.696 701.007 610.924 647.755 620.89C710.922 583.112 751.91 515.103 755.35 441.707M314.603 210.246H223.374C211.277 210.246 200.413 203.981 194.364 193.493C188.316 183.004 188.292 170.475 194.341 159.986C211.419 130.324 240.192 103.77 279.9 81.1085C319.892 58.2567 368.97 41.0288 422.222 31.086C359.054 68.8639 318.089 136.874 314.626 210.27M194.364 247.929C200.437 237.44 211.277 231.176 223.374 231.176H314.603C318.066 304.572 359.031 372.582 422.198 410.359C368.97 400.417 319.869 383.165 279.876 360.313C240.168 337.651 211.395 311.098 194.317 281.435C188.268 270.947 188.292 258.418 194.341 247.929M390.65 326C390.65 273.723 455.406 231.176 534.988 231.176C614.57 231.176 679.303 273.7 679.303 326C679.303 378.3 614.57 420.801 534.988 420.801C455.406 420.801 390.65 378.277 390.65 326ZM875.612 404.047C869.563 414.536 858.699 420.801 846.602 420.801H755.374C751.91 347.404 710.946 279.395 647.778 241.617C701.007 251.56 750.108 268.811 790.124 291.663C829.808 314.325 858.604 340.879 875.683 370.541C881.732 381.029 881.708 393.559 875.659 404.047M1070 220.735C1070 160.01 1013.09 103.747 909.793 62.3382C809.527 22.1399 676.432 0 535.012 0C393.591 0 260.497 22.1399 160.231 62.3382C56.8813 103.723 0 159.963 0 220.711C0 281.459 56.905 337.699 160.207 379.107C203.331 396.383 252.574 410.407 306.751 420.801H0V431.265C0 491.99 56.905 548.23 160.207 589.662C260.473 629.86 393.591 652 534.988 652C676.385 652 809.503 629.86 909.769 589.662C1013.07 548.253 1069.98 492.014 1069.98 431.265C1069.98 370.517 1013.07 314.278 909.769 272.869C866.646 255.594 817.402 241.569 763.225 231.176H1069.95V220.735H1070Z" fill="#00ED00"/>
</svg>
