<svg width="70" height="70" viewBox="0 0 70 70" fill="none" xmlns="http://www.w3.org/2000/svg">
<path d="M38.1958 0.142848C16.3904 -1.80241 -1.80241 16.3903 0.142848 38.1958C1.62495 54.9065 15.0935 68.375 31.8042 69.8571C53.6096 71.8024 71.8024 53.6097 69.8571 31.8042C68.375 15.0935 54.9065 1.62495 38.1958 0.142848ZM35.0093 67.6896C29.6367 67.6896 24.8569 62.7246 21.8001 55.0176C21.2999 53.7579 22.3929 52.461 23.7268 52.7204C27.2653 53.3873 31.0632 53.7393 35.0093 53.7393C38.9554 53.7393 42.7533 53.3688 46.2918 52.7204C47.6257 52.4795 48.7187 53.7579 48.2185 55.0176C45.1616 62.7246 40.3634 67.6896 35.0093 67.6896ZM35.0093 52.0534C30.0813 52.0534 25.4127 51.4976 21.2072 50.4787C20.5958 50.3305 20.1141 49.8488 19.9659 49.2375C18.8914 44.9208 18.2801 40.104 18.2801 34.9908C18.2801 29.8775 18.8914 25.0607 19.9659 20.744C20.1141 20.1327 20.5958 19.651 21.2072 19.5028C25.4127 18.5023 30.0813 17.928 35.0093 17.928C39.9373 17.928 44.6059 18.4838 48.8113 19.5028C49.4227 19.651 49.9044 20.1327 50.0526 20.744C51.1271 25.0607 51.7385 29.8775 51.7385 34.9908C51.7385 40.104 51.1271 44.9208 50.0526 49.2375C49.9044 49.8488 49.4227 50.3305 48.8113 50.4787C44.6059 51.4791 39.9373 52.0534 35.0093 52.0534ZM2.31039 34.9908C2.31039 34.1385 2.34749 33.2863 2.4216 32.4527C2.4216 32.3045 2.45863 32.1562 2.51421 32.008C3.95926 27.8025 8.40554 24.1343 14.6489 21.5962C15.9087 21.0775 17.224 22.1891 16.9647 23.523C16.2977 27.0986 15.9458 30.9705 15.9458 35.0092C15.9458 39.048 16.2977 42.9015 16.9647 46.4956C17.2055 47.8294 15.9087 48.9225 14.6489 48.4223C8.40554 45.8842 3.95926 42.216 2.51421 38.0105C2.45863 37.8623 2.44013 37.7141 2.4216 37.5659C2.34749 36.7322 2.31039 35.88 2.31039 35.0278V34.9908ZM35.0093 2.31039C40.3819 2.31039 45.1616 7.27542 48.2185 14.9824C48.7187 16.2421 47.6257 17.539 46.2918 17.2796C42.7533 16.6127 38.9554 16.2607 35.0093 16.2607C31.0632 16.2607 27.2653 16.6312 23.7268 17.2796C22.3929 17.5205 21.2999 16.2421 21.8001 14.9824C24.8569 7.27542 29.6552 2.31039 35.0093 2.31039ZM55.3512 21.5962C61.5945 24.1343 66.0408 27.8025 67.4858 32.008C67.5414 32.1562 67.5599 32.3045 67.5785 32.4527C67.6526 33.2863 67.6896 34.1385 67.6896 34.9908C67.6896 35.843 67.6526 36.6952 67.5785 37.5288C67.5785 37.6771 67.5414 37.8252 67.4858 37.9735C66.0408 42.1789 61.5945 45.8471 55.3512 48.3852C54.0914 48.9039 52.776 47.7924 53.0354 46.4585C53.7023 42.8829 54.0543 39.0109 54.0543 34.9722C54.0543 30.9335 53.7023 27.08 53.0354 23.4859C52.7945 22.152 54.0914 21.059 55.3512 21.5592V21.5962ZM62.1132 23.3377C59.5195 21.5777 56.3701 20.0956 52.776 18.9285C52.2387 18.7617 51.8126 18.3171 51.6459 17.7798C50.5343 14.1116 49.0892 10.888 47.3663 8.20173C46.4214 6.73815 48.0333 4.9782 49.5895 5.75631C56.1663 9.05398 61.4648 14.5007 64.5957 21.1701C65.3368 22.7449 63.5397 24.3011 62.0946 23.3192L62.1132 23.3377ZM22.6152 8.20173C20.8923 10.8695 19.4472 14.1116 18.3357 17.7798C18.1689 18.3171 17.7428 18.7617 17.2055 18.9285C13.63 20.0956 10.4619 21.5777 7.86827 23.3377C6.42322 24.3196 4.62622 22.7634 5.36727 21.1887C8.49821 14.5192 13.7967 9.07247 20.3735 5.77479C21.9297 4.99669 23.5415 6.73817 22.5967 8.22027L22.6152 8.20173ZM7.88681 46.6623C10.4805 48.4223 13.63 49.9044 17.2241 51.0715C17.7613 51.2383 18.1874 51.6829 18.3541 52.2202C19.4657 55.8698 20.9108 59.112 22.6337 61.7983C23.5785 63.2618 21.9668 65.0218 20.4106 64.2437C13.8523 60.946 8.53524 55.4993 5.4043 48.8299C4.66325 47.2551 6.46031 45.6989 7.90536 46.6808L7.88681 46.6623ZM47.3848 61.7983C49.1078 59.1305 50.5528 55.8884 51.6643 52.2202C51.8311 51.6829 52.2573 51.2383 52.7945 51.0715C56.3701 49.9044 59.538 48.4223 62.1317 46.6623C63.5768 45.6804 65.3738 47.2366 64.6327 48.8113C61.5018 55.4808 56.2033 60.9275 49.6265 64.2252C48.0703 65.0033 46.4585 63.2618 47.4034 61.7797L47.3848 61.7983Z" fill="black"/>
</svg>
